# Vectary OBJ Export units=mm
mtllib Project Name.mtl 
o 000_Layer_2
g Layer_2
usemtl Default material_0
v 19.085 12.719 8.660
v 22.434 0.219 8.660
v 22.774 0.219 8.444
v 19.379 12.889 8.444
v 10.425 7.719 8.660
v 12.434 0.219 8.660
v 10.141 7.555 0.000
v 12.107 0.219 0.000
v 10.425 7.719 0.124
v 12.434 0.219 0.124
v 19.085 12.719 -0.216
v 22.434 0.219 -0.216
v 9.934 21.869 8.660
v 10.104 22.163 8.444
v 4.934 13.209 8.660
v 4.771 12.926 0.000
v 4.934 13.209 0.124
v 9.934 21.869 -0.216
v -2.566 25.219 8.660
v -2.566 25.558 8.444
v -2.566 15.219 8.660
v -2.566 14.892 0.000
v -2.566 15.219 0.124
v -2.566 25.219 -0.216
v -15.066 21.869 8.660
v -15.236 22.163 8.444
v -10.066 13.209 8.660
v -9.902 12.926 0.000
v -10.066 13.209 0.124
v -15.066 21.869 -0.216
v -24.216 12.719 8.660
v -24.511 12.889 8.444
v -15.556 7.719 8.660
v -15.273 7.555 0.000
v -15.556 7.719 0.124
v -24.216 12.719 -0.216
v -27.566 0.219 8.660
v -27.906 0.219 8.444
v -17.566 0.219 8.660
v -17.239 0.219 0.000
v -17.566 0.219 0.124
v -27.566 0.219 -0.216
v -24.216 -12.281 8.660
v -24.511 -12.451 8.444
v -15.556 -7.281 8.660
v -15.273 -7.118 0.000
v -15.556 -7.281 0.124
v -24.216 -12.281 -0.216
v -15.066 -21.432 8.660
v -15.236 -21.726 8.444
v -10.066 -12.772 8.660
v -9.902 -12.489 0.000
v -10.066 -12.772 0.124
v -15.066 -21.432 -0.216
v -2.566 -24.781 8.660
v -2.566 -25.121 8.444
v -2.566 -14.781 8.660
v -2.566 -14.454 0.000
v -2.566 -14.781 0.124
v -2.566 -24.781 -0.216
v 9.934 -21.432 8.660
v 10.104 -21.726 8.444
v 4.934 -12.772 8.660
v 4.771 -12.489 0.000
v 4.934 -12.772 0.124
v 9.934 -21.432 -0.216
v 19.085 -12.281 8.660
v 19.379 -12.451 8.444
v 10.425 -7.281 8.660
v 10.141 -7.118 0.000
v 10.425 -7.281 0.124
v 19.085 -12.281 -0.216
vn 0.241 0.139 0.961
vn 0.278 0.000 0.961
vn 0.537 0.000 0.844
vn 0.999 -0.000 -0.039
vn 0.465 0.268 0.844
vn 0.865 0.500 -0.039
vn 0.000 0.000 1.000
vn -0.865 -0.500 0.038
vn 0.000 -0.000 1.000
vn -0.999 0.000 0.038
vn -0.865 -0.500 0.038
vn 0.307 0.177 -0.935
vn -0.999 0.000 0.038
vn 0.354 -0.000 -0.935
vn 0.141 0.081 -0.987
vn 0.163 -0.000 -0.987
vn -0.029 -0.017 -0.999
vn 0.865 0.500 -0.039
vn -0.034 0.000 -0.999
vn 0.999 -0.000 -0.039
vn 0.139 0.241 0.961
vn 0.268 0.465 0.844
vn 0.500 0.865 -0.039
vn 0.000 0.000 1.000
vn -0.500 -0.865 0.038
vn -0.500 -0.865 0.038
vn 0.177 0.307 -0.935
vn 0.081 0.141 -0.987
vn -0.017 -0.029 -0.999
vn 0.500 0.865 -0.039
vn 0.000 0.278 0.961
vn 0.000 0.537 0.844
vn 0.000 0.999 -0.039
vn 0.000 0.000 1.000
vn -0.000 -0.999 0.038
vn -0.000 -0.999 0.038
vn -0.000 0.354 -0.935
vn -0.000 0.163 -0.987
vn -0.000 -0.034 -0.999
vn 0.000 0.999 -0.039
vn -0.139 0.241 0.961
vn -0.268 0.465 0.844
vn -0.500 0.865 -0.039
vn -0.000 0.000 1.000
vn 0.500 -0.865 0.038
vn 0.500 -0.865 0.038
vn -0.177 0.307 -0.935
vn -0.081 0.141 -0.987
vn 0.017 -0.029 -0.999
vn -0.500 0.865 -0.039
vn -0.241 0.139 0.961
vn -0.465 0.268 0.844
vn -0.865 0.500 -0.039
vn -0.000 0.000 1.000
vn 0.865 -0.500 0.038
vn 0.865 -0.500 0.038
vn -0.307 0.177 -0.935
vn -0.141 0.081 -0.987
vn 0.029 -0.017 -0.999
vn -0.865 0.500 -0.039
vn -0.278 0.000 0.961
vn -0.537 0.000 0.844
vn -0.999 0.000 -0.039
vn -0.000 0.000 1.000
vn 0.999 -0.000 0.038
vn 0.999 -0.000 0.038
vn -0.354 -0.000 -0.935
vn -0.163 -0.000 -0.987
vn 0.034 0.000 -0.999
vn -0.999 0.000 -0.039
vn -0.241 -0.139 0.961
vn -0.465 -0.268 0.844
vn -0.865 -0.500 -0.039
vn -0.000 -0.000 1.000
vn 0.865 0.500 0.038
vn 0.865 0.500 0.038
vn -0.307 -0.177 -0.935
vn -0.141 -0.081 -0.987
vn 0.029 0.017 -0.999
vn -0.865 -0.500 -0.039
vn -0.139 -0.241 0.961
vn -0.268 -0.465 0.844
vn -0.500 -0.865 -0.039
vn 0.000 -0.000 1.000
vn 0.500 0.865 0.038
vn 0.500 0.865 0.038
vn -0.177 -0.307 -0.935
vn -0.081 -0.141 -0.987
vn 0.017 0.029 -0.999
vn -0.500 -0.865 -0.039
vn -0.000 -0.278 0.961
vn -0.000 -0.537 0.844
vn -0.000 -0.999 -0.039
vn 0.000 -0.000 1.000
vn 0.000 0.999 0.038
vn 0.000 0.999 0.038
vn -0.000 -0.354 -0.935
vn -0.000 -0.163 -0.987
vn 0.000 0.034 -0.999
vn -0.000 -0.999 -0.039
vn 0.139 -0.241 0.961
vn 0.268 -0.465 0.844
vn 0.500 -0.865 -0.039
vn 0.000 -0.000 1.000
vn -0.500 0.865 0.038
vn -0.500 0.865 0.038
vn 0.177 -0.307 -0.935
vn 0.081 -0.141 -0.987
vn -0.017 0.029 -0.999
vn 0.500 -0.865 -0.039
vn 0.241 -0.139 0.961
vn 0.465 -0.268 0.844
vn 0.865 -0.500 -0.039
vn 0.000 -0.000 1.000
vn -0.865 0.500 0.038
vn -0.865 0.500 0.038
vn 0.307 -0.177 -0.935
vn 0.141 -0.081 -0.987
vn -0.029 0.017 -0.999
vn 0.865 -0.500 -0.039
f 5//7 6//9 2//2 1//1 
f 7//11 8//13 6//10 5//8 
f 9//15 10//16 8//14 7//12 
f 11//17 12//19 10//16 9//15 
f 13//21 1//1 4//5 14//22 
f 15//24 5//7 1//1 13//21 
f 16//26 7//11 5//8 15//25 
f 17//28 9//15 7//12 16//27 
f 18//29 11//17 9//15 17//28 
f 19//31 13//21 14//22 20//32 
f 21//34 15//24 13//21 19//31 
f 22//36 16//26 15//25 21//35 
f 23//38 17//28 16//27 22//37 
f 24//39 18//29 17//28 23//38 
f 25//41 19//31 20//32 26//42 
f 27//44 21//34 19//31 25//41 
f 28//46 22//36 21//35 27//45 
f 29//48 23//38 22//37 28//47 
f 30//49 24//39 23//38 29//48 
f 26//43 20//33 24//40 30//50 
f 31//51 25//41 26//42 32//52 
f 33//54 27//44 25//41 31//51 
f 34//56 28//46 27//45 33//55 
f 35//58 29//48 28//47 34//57 
f 36//59 30//49 29//48 35//58 
f 32//53 26//43 30//50 36//60 
f 37//61 31//51 32//52 38//62 
f 39//64 33//54 31//51 37//61 
f 40//66 34//56 33//55 39//65 
f 41//68 35//58 34//57 40//67 
f 42//69 36//59 35//58 41//68 
f 38//63 32//53 36//60 42//70 
f 43//71 37//61 38//62 44//72 
f 45//74 39//64 37//61 43//71 
f 46//76 40//66 39//65 45//75 
f 47//78 41//68 40//67 46//77 
f 48//79 42//69 41//68 47//78 
f 44//73 38//63 42//70 48//80 
f 49//81 43//71 44//72 50//82 
f 51//84 45//74 43//71 49//81 
f 52//86 46//76 45//75 51//85 
f 53//88 47//78 46//77 52//87 
f 54//89 48//79 47//78 53//88 
f 50//83 44//73 48//80 54//90 
f 55//91 49//81 50//82 56//92 
f 57//94 51//84 49//81 55//91 
f 58//96 52//86 51//85 57//95 
f 59//98 53//88 52//87 58//97 
f 60//99 54//89 53//88 59//98 
f 56//93 50//83 54//90 60//100 
f 61//101 55//91 56//92 62//102 
f 63//104 57//94 55//91 61//101 
f 64//106 58//96 57//95 63//105 
f 65//108 59//98 58//97 64//107 
f 66//109 60//99 59//98 65//108 
f 62//103 56//93 60//100 66//110 
f 67//111 61//101 62//102 68//112 
f 69//114 63//104 61//101 67//111 
f 70//116 64//106 63//105 69//115 
f 71//118 65//108 64//107 70//117 
f 72//119 66//109 65//108 71//118 
f 2//2 67//111 68//112 3//3 
f 6//9 69//114 67//111 2//2 
f 8//13 70//116 69//115 6//10 
f 10//16 71//118 70//117 8//14 
f 12//19 72//119 71//118 10//16 
f 20//33 14//23 18//30 24//40 
f 14//23 4//6 11//18 18//30 
f 68//113 62//103 66//110 72//120 
f 3//4 68//113 72//120 12//20 
f 1//1 2//2 3//3 4//5 
f 4//6 3//4 12//20 11//18 
